<svg width="331" height="324" viewBox="0 0 331 324" fill="none" xmlns="http://www.w3.org/2000/svg">
<rect width="331" height="324" rx="65" fill="#141419"/>
<path d="M67.6519 223C59.4046 223 52.2765 222.102 46.2678 220.307C40.3768 218.511 35.723 215.953 32.3062 212.631C29.0073 209.31 27.1811 205.494 26.8277 201.185H52.9834C53.4547 203.52 55.222 205.315 58.2853 206.572C61.3486 207.918 65.1777 208.592 69.7726 208.592C76.8418 208.592 81.8491 207.38 84.7945 204.956C87.8578 202.622 89.3895 199.21 89.3895 194.722V182.199H88.1524C85.796 186.238 82.0847 189.336 77.0185 191.49C71.9523 193.555 66.297 194.587 60.0526 194.587C51.9231 194.587 45.1485 193.196 39.7288 190.413C34.427 187.63 30.48 183.68 27.888 178.563C25.296 173.356 24 167.341 24 160.519V159.98C24 152.35 25.4138 145.976 28.2415 140.859C31.187 135.742 35.3695 131.926 40.7892 129.413C46.2089 126.809 52.6889 125.508 60.2293 125.508C67.6519 125.508 73.6017 126.585 78.0789 128.74C82.556 130.804 85.9138 133.587 88.1524 137.088H89.5662L90.98 126.854H116.606V192.298C116.606 199.3 114.721 205.046 110.95 209.534C107.18 214.113 101.643 217.479 94.3379 219.634C87.1509 221.878 78.2556 223 67.6519 223ZM71.1865 178.159C76.9596 178.159 81.4367 176.857 84.6178 174.254C87.7989 171.561 89.3895 168.104 89.3895 163.885V156.344C89.3895 153.382 88.6236 150.823 87.092 148.669C85.5604 146.514 83.4396 144.854 80.7298 143.687C78.1378 142.52 74.9567 141.936 71.1865 141.936C67.4163 141.936 64.1762 142.52 61.4664 143.687C58.7566 144.854 56.6947 146.469 55.2809 148.534C53.8671 150.599 53.1602 153.113 53.1602 156.075V164.424C53.1602 167.297 53.8671 169.765 55.2809 171.83C56.8126 173.805 58.9333 175.376 61.6431 176.543C64.353 177.62 67.5341 178.159 71.1865 178.159Z" fill="white"/>
<path d="M131.977 199.166V142.879C131.977 138.031 133.921 134.171 137.809 131.298C141.697 128.336 146.763 126.854 153.008 126.854H191.711V143.552H159.193V199.166H131.977Z" fill="white"/>
<path d="M201.149 199.166V126.854H228.366V199.166H201.149ZM201.149 117.698V101H228.366V117.698H201.149Z" fill="white"/>
<path d="M277.486 199.166C269.946 199.166 264.526 197.684 261.227 194.722C258.046 191.759 256.456 187.899 256.456 183.141V136.819H283.672V183.007H305.94V199.166H277.486ZM235.955 143.552V126.854H256.456V104.232H283.672V126.854H307V143.552H235.955Z" fill="white"/>
</svg>
