<svg width="279" height="127" viewBox="0 0 279 127" fill="none" xmlns="http://www.w3.org/2000/svg">
<path d="M39.658 127C32.0595 127 25.5018 126.019 19.9851 124.056C14.5725 122.187 10.3569 119.477 7.33829 115.926C4.3197 112.468 2.60223 108.45 2.18587 103.871H28.8847C29.4052 105.833 30.8624 107.329 33.2565 108.357C35.6505 109.384 38.565 109.898 42 109.898C47.5167 109.898 51.4721 108.777 53.8661 106.534C56.2602 104.385 57.4572 101.301 57.4572 97.2826V84.8068H56.2081C54.2305 89.0121 51.0557 92.1427 46.684 94.1987C42.3122 96.1611 37.4201 97.1424 32.0074 97.1424C24.8253 97.1424 18.8401 95.6939 14.052 92.7969C9.36802 89.8999 5.82899 85.7881 3.43494 80.4614C1.14498 75.1347 0 68.8267 0 61.5375V61.117C0 53.1737 1.24907 46.5386 3.74721 41.2119C6.24535 35.7918 9.88847 31.7266 14.6766 29.0166C19.4647 26.213 25.2416 24.8113 32.0074 24.8113C38.6691 24.8113 43.8736 25.8859 47.6208 28.0353C51.4721 30.0912 54.3345 32.8481 56.2081 36.3057H57.4572L59.0186 26.213H85.0929V94.3388C85.0929 102.002 83.3234 108.216 79.7843 112.982C76.3494 117.842 71.249 121.393 64.4832 123.636C57.8215 125.879 49.5464 127 39.658 127ZM43.4052 77.6578C47.881 77.6578 51.3159 76.4897 53.71 74.1534C56.104 71.8171 57.3011 68.78 57.3011 65.0419V57.1921C57.3011 54.482 56.7286 52.1924 55.5836 50.3234C54.4386 48.4544 52.8252 47.0526 50.7435 46.1181C48.6617 45.0901 46.2156 44.5762 43.4052 44.5762C40.4907 44.5762 37.9925 45.0901 35.9108 46.1181C33.829 47.1461 32.2156 48.5946 31.0706 50.4636C30.0297 52.3326 29.5093 54.5287 29.5093 57.0519V65.3223C29.5093 67.9389 30.0818 70.1818 31.2267 72.0508C32.4758 73.8263 34.1412 75.2281 36.223 76.2561C38.3048 77.1906 40.6989 77.6578 43.4052 77.6578Z" fill="white"/>
<path d="M103.8 102.189V44.8565C103.8 39.2494 105.673 34.7638 109.42 31.3996C113.272 27.9419 118.268 26.213 124.409 26.213H158.759V46.1181H131.435V102.189H103.8Z" fill="white"/>
<path d="M173.175 102.189V26.213H200.811V102.189H173.175ZM173.175 17.8024V0H200.811V17.8024H173.175Z" fill="white"/>
<path d="M251.989 102.189C244.703 102.189 239.446 100.507 236.219 97.1424C233.097 93.6847 231.535 89.2458 231.535 83.8256V37.9879H259.171V82.8444H277.907V102.189H251.989ZM213.736 46.1181V26.213H231.535V3.08389H259.171V26.213H279V46.1181H213.736Z" fill="white"/>
</svg>
